<svg xmlns="http://www.w3.org/2000/svg" viewBox="0 0 1180 180" role="img" aria-labelledby="title desc">
  <title id="title">Greedy Motion logo</title>
  <desc id="desc">Refined blue motion mark with orange forward wedge and the Greedy Motion blue wordmark.</desc>
  <g transform="translate(24 18)">
    <g fill="#168BFF">
      <rect x="18" y="55" width="42" height="12" rx="6"/>
      <rect x="8" y="74" width="58" height="12" rx="6"/>
      <rect x="20" y="93" width="34" height="12" rx="6"/>
      <path d="M76 49C76 31 96 20 114 28c26 12 46 32 64 52-18 20-38 40-64 52-18 8-38-3-38-21V49Z"/>
    </g>
    <path fill="#FF5A1F" d="M192 54c0-9 10-14 18-9l31 20c8 5 8 16 0 21l-31 20c-8 5-18 0-18-9V54Z"/>
  </g>
  <text x="284" y="123" fill="#102A5C" font-family="Space Grotesk, Arial, sans-serif" font-size="104" font-weight="800" letter-spacing="-6">Greedy</text>
  <text x="627" y="123" fill="#168BFF" font-family="Space Grotesk, Arial, sans-serif" font-size="104" font-weight="800" letter-spacing="-6">Mot&#305;on</text>
  <g aria-label="Greedy Slice i dot">
    <path fill="#168BFF" d="M794 43c0-9 8-16 18-16 8 0 16 4 22 12-6 8-14 13-22 13-10 0-18-4-18-9Z"/>
    <path fill="#FF5A1F" d="M797 51c10-2 21-8 32-18-2 10-9 18-20 21Z"/>
  </g>
</svg>
